<svg width="261" height="261" viewBox="0 0 261 261" fill="none" xmlns="http://www.w3.org/2000/svg">
<g filter="url(#filter0_d_301_403)">
<rect x="40.724" y="36.4058" width="180" height="180" rx="32" fill="white"/>
<rect x="41.224" y="36.9058" width="179" height="179" rx="31.5" stroke="white"/>
</g>
<path d="M156.045 108.047L132.138 142.612C131.885 142.979 131.518 143.253 131.094 143.394C130.67 143.535 130.212 143.534 129.789 143.392C129.366 143.25 129.001 142.974 128.75 142.607C128.498 142.239 128.374 141.8 128.397 141.356L129.354 122.272L113.907 118.997C113.577 118.927 113.27 118.777 113.012 118.56C112.754 118.343 112.554 118.067 112.429 117.755C112.305 117.442 112.259 117.104 112.297 116.77C112.335 116.436 112.455 116.117 112.647 115.84L136.554 81.2741C136.807 80.9074 137.174 80.633 137.598 80.4923C138.022 80.3515 138.48 80.3523 138.904 80.4944C139.327 80.6365 139.692 80.9123 139.943 81.2798C140.194 81.6473 140.318 82.0865 140.296 82.5308L139.339 101.615L154.785 104.89C155.115 104.96 155.422 105.11 155.68 105.327C155.938 105.543 156.138 105.82 156.263 106.132C156.388 106.444 156.433 106.782 156.395 107.116C156.357 107.45 156.237 107.77 156.045 108.047Z" fill="#FCC72B"/>
<path d="M131.01 171.613C130.374 171.613 129.744 171.489 129.157 171.246C128.569 171.002 128.036 170.645 127.587 170.195L104.998 147.608C104.094 146.699 103.587 145.47 103.589 144.188C103.591 142.907 104.1 141.678 105.007 140.772C105.913 139.866 107.141 139.356 108.423 139.354C109.704 139.352 110.934 139.858 111.843 140.762L131.01 159.927L172.764 118.174C173.675 117.278 174.902 116.779 176.179 116.784C177.456 116.789 178.679 117.299 179.582 118.202C180.485 119.105 180.995 120.328 181 121.605C181.005 122.882 180.505 124.109 179.609 125.019L134.432 170.195C133.983 170.646 133.449 171.002 132.862 171.246C132.275 171.489 131.645 171.613 131.01 171.613Z" fill="#729B1B"/>
<path d="M130.99 171.613C131.626 171.613 132.256 171.489 132.843 171.246C133.431 171.002 133.964 170.645 134.413 170.195L157.002 147.608C157.906 146.699 158.413 145.47 158.411 144.188C158.409 142.907 157.899 141.678 156.993 140.772C156.087 139.866 154.858 139.356 153.577 139.354C152.295 139.352 151.066 139.858 150.157 140.762L130.99 159.927L89.2352 118.174C88.325 117.278 87.0977 116.779 85.8208 116.784C84.5438 116.789 83.3207 117.299 82.4177 118.202C81.5148 119.105 81.0052 120.328 81 121.605C80.9948 122.882 81.4944 124.109 82.39 125.019L127.568 170.195C128.017 170.646 128.55 171.002 129.138 171.246C129.725 171.489 130.354 171.613 130.99 171.613Z" fill="#729B1B" fill-opacity="0.5"/>
<defs>
<filter id="filter0_d_301_403" x="0.723999" y="0.405762" width="260" height="260" filterUnits="userSpaceOnUse" color-interpolation-filters="sRGB">
<feFlood flood-opacity="0" result="BackgroundImageFix"/>
<feColorMatrix in="SourceAlpha" type="matrix" values="0 0 0 0 0 0 0 0 0 0 0 0 0 0 0 0 0 0 127 0" result="hardAlpha"/>
<feOffset dy="4"/>
<feGaussianBlur stdDeviation="20"/>
<feComposite in2="hardAlpha" operator="out"/>
<feColorMatrix type="matrix" values="0 0 0 0 0.0367917 0 0 0 0 0.0348958 0 0 0 0 0.0484375 0 0 0 0.1 0"/>
<feBlend mode="normal" in2="BackgroundImageFix" result="effect1_dropShadow_301_403"/>
<feBlend mode="normal" in="SourceGraphic" in2="effect1_dropShadow_301_403" result="shape"/>
</filter>
</defs>
</svg>
